<svg width="315" height="112" viewBox="0 0 315 112" fill="none" xmlns="http://www.w3.org/2000/svg">
<path d="M37.96 112H0.84V31.36C0.84 30.4213 1.65067 29.6533 3.272 29.056C4.89333 28.4587 6.81333 28.032 9.032 27.776C11.2507 27.4347 13.3413 27.2213 15.304 27.136C17.2667 26.9653 18.632 26.88 19.4 26.88H74.44C75.208 26.88 76.5733 26.9653 78.536 27.136C80.4987 27.2213 82.5893 27.4347 84.808 27.776C87.0267 28.032 88.9467 28.4587 90.568 29.056C92.1893 29.6533 93 30.4213 93 31.36V112H55.88V77.312H37.96V112ZM37.96 68.352H55.88V35.84H37.96V68.352ZM60.278 16.384L25.59 8.064L28.662 -1.92001L62.838 7.424L60.278 16.384ZM136.555 112H100.715V23.04H136.555V112ZM224.855 103.296V112H162.135C161.452 112 160.13 111.957 158.167 111.872C156.29 111.701 154.242 111.488 152.023 111.232C149.89 110.891 148.055 110.421 146.519 109.824C144.983 109.227 144.215 108.501 144.215 107.648V52.352C144.215 51.4133 144.983 50.688 146.519 50.176C148.055 49.5787 149.89 49.152 152.023 48.896C154.242 48.5547 156.29 48.3413 158.167 48.256C160.13 48.0853 161.452 48 162.135 48H208.215C208.898 48 210.178 48.0853 212.055 48.256C214.018 48.3413 216.066 48.5547 218.199 48.896C220.418 49.152 222.295 49.5787 223.831 50.176C225.367 50.688 226.135 51.4133 226.135 52.352V89.472C226.135 90.3253 225.367 91.0507 223.831 91.648C222.295 92.2453 220.418 92.7147 218.199 93.056C216.066 93.312 214.018 93.5253 212.055 93.696C210.178 93.7813 208.898 93.824 208.215 93.824H197.847C196.994 93.824 195.671 93.7813 193.879 93.696C192.087 93.6107 190.21 93.44 188.247 93.184C186.284 92.8427 184.535 92.416 182.999 91.904C181.463 91.392 180.482 90.752 180.055 89.984V103.296H224.855ZM180.055 85.12H190.295V56.704H180.055V85.12ZM278.64 48H314.48V76.16C314.48 76.928 313.2 77.7387 310.64 78.592C308.08 79.36 304.624 80.128 300.272 80.896C296.005 81.664 291.184 82.4747 285.808 83.328C280.517 84.1813 275.141 85.0773 269.68 86.016V112H233.84V83.84C233.84 83.072 235.12 82.304 237.68 81.536C240.24 80.6827 243.653 79.872 247.92 79.104C252.272 78.336 257.093 77.5253 262.384 76.672C267.76 75.8187 273.179 74.9227 278.64 73.984V48ZM235.12 48H270.96V74.112H253.04C252.357 74.112 251.035 74.0693 249.072 73.984C247.195 73.8133 245.147 73.6 242.928 73.344C240.795 73.0027 238.96 72.5333 237.424 71.936C235.888 71.3387 235.12 70.6133 235.12 69.76V48ZM313.2 112H277.36V85.888H295.28C295.963 85.888 297.243 85.9733 299.12 86.144C301.083 86.2293 303.131 86.4427 305.264 86.784C307.483 87.04 309.36 87.4667 310.896 88.064C312.432 88.576 313.2 89.3013 313.2 90.24V112Z" fill="#D9D9D9"/>
</svg>
